# xmcd CD database file
#
# Track frame offsets:
#        150
#        8758
#        16368
#        25118
#        33877
#        41085
#        50078
#        57685
#        71748
#        82961
#        93373
#        98532
#        105795
#        110076
#
# Disc length: 1905 seconds
#
# Revision: 0
# Processed by: cddbd v1.5.2PL0 Copyright (c) Steve Scherf et al.
# Submitted via: CUERipper 2.1.4
#
DISCID=a9076f0e
DTITLE=Slavebreed - Dethrone the architect
DYEAR=2012
DGENRE=
TTITLE0=A new plague upon us
TTITLE1=Avaritia
TTITLE2=Diluted's canticle
TTITLE3=Failed Sepuku
TTITLE4=Plebeians
TTITLE5=Flagellants
TTITLE6=Dethrone the architect
TTITLE7=Inside the jaws of famine
TTITLE8=Maleficium
TTITLE9=Penal colony
TTITLE10=Preaching to the fallen
TTITLE11=Dog Eat Dog (DISRUPT cover, Unrest 1994)
TTITLE12=Chironex fleckeri
TTITLE13=Seiling the styx
EXTD=
EXTT0=
EXTT1=
EXTT2=
EXTT3=
EXTT4=
EXTT5=
EXTT6=
EXTT7=
EXTT8=
EXTT9=
EXTT10=
EXTT11=
EXTT12=
EXTT13=
PLAYORDER=
